<svg xmlns="http://www.w3.org/2000/svg" viewBox="0 0 1600 900" role="img" aria-labelledby="title desc">
  <title id="title">Desk with many answer cards</title>
  <desc id="desc">A warm editorial illustration of a desk, laptop, tea, and many abstract cards.</desc>
  <defs>
    <linearGradient id="bg" x1="0" x2="1" y1="0" y2="1">
      <stop offset="0" stop-color="#fff9ed"/>
      <stop offset="1" stop-color="#edf4ee"/>
    </linearGradient>
    <filter id="soft" color-interpolation-filters="sRGB">
      <feDropShadow dx="0" dy="12" stdDeviation="18" flood-color="#7b6956" flood-opacity=".14"/>
    </filter>
  </defs>
  <rect width="1600" height="900" fill="url(#bg)"/>
  <circle cx="1320" cy="150" r="130" fill="#f7d8a8" opacity=".55"/>
  <rect x="160" y="610" width="1280" height="80" rx="40" fill="#d9b98f" opacity=".55"/>
  <rect x="245" y="255" width="610" height="350" rx="28" fill="#fdf7ec" filter="url(#soft)"/>
  <rect x="305" y="315" width="490" height="235" rx="16" fill="#dfe9e4"/>
  <rect x="395" y="370" width="130" height="78" rx="14" fill="#f8f2e7"/>
  <rect x="552" y="350" width="160" height="94" rx="14" fill="#c9d8df"/>
  <rect x="485" y="468" width="185" height="46" rx="14" fill="#f2cfa8"/>
  <path d="M290 605h520l80 78H210z" fill="#b79068" opacity=".8"/>
  <g filter="url(#soft)" opacity=".96">
    <rect x="925" y="220" width="190" height="120" rx="22" fill="#fffdf7"/>
    <rect x="1160" y="255" width="170" height="110" rx="22" fill="#eef6f1"/>
    <rect x="980" y="400" width="220" height="135" rx="22" fill="#fff4df"/>
    <rect x="1225" y="455" width="150" height="95" rx="22" fill="#e7eef2"/>
    <rect x="890" y="555" width="175" height="98" rx="22" fill="#f7eee5"/>
  </g>
  <g fill="none" stroke="#8da79a" stroke-linecap="round" stroke-width="12" opacity=".55">
    <path d="M958 295h104"/>
    <path d="M1194 312h92"/>
    <path d="M1022 463h132"/>
    <path d="M1248 503h88"/>
    <path d="M924 602h104"/>
  </g>
  <g fill="#b66d48" opacity=".45">
    <circle cx="1115" cy="605" r="11"/>
    <circle cx="1165" cy="590" r="8"/>
    <circle cx="1210" cy="625" r="10"/>
  </g>
  <rect x="120" y="690" width="1360" height="36" rx="18" fill="#9f7b58" opacity=".24"/>
</svg>
