<svg xmlns="http://www.w3.org/2000/svg" viewBox="0 0 1600 900" role="img" aria-labelledby="title desc">
  <title id="title">Automation with surrounding context</title>
  <desc id="desc">A cozy workspace with workflow cards, a map, a calendar, and everyday context clues.</desc>
  <defs>
    <linearGradient id="bg" x1="0" x2="1" y1="0" y2="1">
      <stop offset="0" stop-color="#fff8ec"/>
      <stop offset="1" stop-color="#eef5f3"/>
    </linearGradient>
    <filter id="soft" color-interpolation-filters="sRGB">
      <feDropShadow dx="0" dy="10" stdDeviation="16" flood-color="#725d4a" flood-opacity=".14"/>
    </filter>
  </defs>
  <rect width="1600" height="900" fill="url(#bg)"/>
  <rect x="125" y="600" width="1350" height="105" rx="50" fill="#d9b98f" opacity=".5"/>
  <g filter="url(#soft)">
    <rect x="210" y="210" width="315" height="255" rx="28" fill="#fffdf7"/>
    <path d="M260 270c70 25 115-45 205-6 20 9 30 28 34 50-50 8-75 52-130 44-52-8-86-44-130-10-18-32-12-60 21-78z" fill="#dbe8e2"/>
    <path d="M252 387c58-42 110-4 158-16 46-12 58-49 95-58" fill="none" stroke="#91a89b" stroke-width="12" stroke-linecap="round"/>
    <rect x="1110" y="210" width="285" height="255" rx="28" fill="#fffdf7"/>
    <g fill="#dce9e4">
      <rect x="1160" y="285" width="42" height="42" rx="9"/>
      <rect x="1220" y="285" width="42" height="42" rx="9"/>
      <rect x="1280" y="285" width="42" height="42" rx="9"/>
      <rect x="1160" y="345" width="42" height="42" rx="9"/>
      <rect x="1220" y="345" width="42" height="42" rx="9"/>
      <rect x="1280" y="345" width="42" height="42" rx="9"/>
    </g>
  </g>
  <rect x="575" y="355" width="450" height="165" rx="36" fill="#eed7bd" filter="url(#soft)"/>
  <rect x="625" y="390" width="350" height="94" rx="24" fill="#fdf8ed"/>
  <g fill="#fdf8ed" stroke="#93aa9d" stroke-width="8" filter="url(#soft)">
    <rect x="360" y="520" width="185" height="92" rx="24"/>
    <rect x="602" y="520" width="185" height="92" rx="24"/>
    <rect x="842" y="520" width="185" height="92" rx="24"/>
    <rect x="1085" y="520" width="185" height="92" rx="24"/>
  </g>
  <g fill="none" stroke="#a56e4e" stroke-linecap="round" stroke-width="10" opacity=".55">
    <path d="M545 566h57"/>
    <path d="M787 566h55"/>
    <path d="M1027 566h58"/>
  </g>
  <g fill="#88a694" opacity=".65">
    <ellipse cx="208" cy="565" rx="38" ry="72"/>
    <ellipse cx="250" cy="552" rx="34" ry="58"/>
    <rect x="210" y="615" width="60" height="74" rx="14" fill="#c89f74"/>
  </g>
</svg>
