<svg xmlns="http://www.w3.org/2000/svg" viewBox="0 0 1600 900" role="img" aria-labelledby="title desc">
  <title id="title">Economic pressure and automation</title>
  <desc id="desc">A warm desk scene with a scale, simple cost cards, and a quiet upward pressure line.</desc>
  <defs>
    <linearGradient id="bg" x1="0" x2="1" y1="0" y2="1">
      <stop offset="0" stop-color="#fffdf8"/>
      <stop offset="1" stop-color="#eef5f4"/>
    </linearGradient>
    <filter id="soft"><feDropShadow dx="0" dy="12" stdDeviation="18" flood-color="#725d4a" flood-opacity=".14"/></filter>
  </defs>
  <rect width="1600" height="900" fill="url(#bg)"/>
  <rect x="145" y="632" width="1310" height="88" rx="44" fill="#d8b88d" opacity=".5"/>
  <g filter="url(#soft)">
    <rect x="270" y="260" width="310" height="250" rx="30" fill="#fffdf8"/>
    <rect x="1020" y="250" width="300" height="270" rx="30" fill="#fffdf8"/>
    <rect x="650" y="310" width="300" height="240" rx="34" fill="#fff4df"/>
  </g>
  <g fill="none" stroke="#8da79a" stroke-width="12" stroke-linecap="round" opacity=".55">
    <path d="M330 345h185"/><path d="M330 405h140"/><path d="M1080 345h175"/><path d="M1080 405h110"/>
  </g>
  <g fill="none" stroke="#a66d4c" stroke-width="13" stroke-linecap="round" stroke-linejoin="round" opacity=".55">
    <path d="M730 470l70-115 70 115"/>
    <path d="M690 470h220"/>
    <path d="M800 355v-70"/>
    <path d="M690 285h220"/>
  </g>
  <path d="M365 585c220-105 420-20 625-145 105-64 180-142 250-240" fill="none" stroke="#8da79a" stroke-width="16" stroke-linecap="round" opacity=".42"/>
  <path d="M1216 206l37-63 18 71" fill="none" stroke="#8da79a" stroke-width="16" stroke-linecap="round" stroke-linejoin="round" opacity=".42"/>
</svg>
