<svg xmlns="http://www.w3.org/2000/svg" viewBox="0 0 1600 900" role="img" aria-labelledby="title desc">
  <title id="title">Machine work and human work</title>
  <desc id="desc">A warm desk scene separating many repeated cards from one focused decision notebook.</desc>
  <defs><linearGradient id="bg" x1="0" x2="1" y1="0" y2="1"><stop offset="0" stop-color="#fffdf8"/><stop offset="1" stop-color="#edf5f2"/></linearGradient><filter id="soft"><feDropShadow dx="0" dy="12" stdDeviation="18" flood-color="#725d4a" flood-opacity=".14"/></filter></defs>
  <rect width="1600" height="900" fill="url(#bg)"/>
  <rect x="140" y="630" width="1320" height="86" rx="43" fill="#d8b88d" opacity=".5"/>
  <g filter="url(#soft)">
    <rect x="250" y="240" width="430" height="360" rx="34" fill="#fffdf8"/>
    <rect x="920" y="240" width="430" height="360" rx="34" fill="#fffdf8"/>
  </g>
  <g fill="#dce9e4">
    <rect x="315" y="315" width="105" height="70" rx="14"/><rect x="455" y="315" width="105" height="70" rx="14"/>
    <rect x="315" y="415" width="105" height="70" rx="14"/><rect x="455" y="415" width="105" height="70" rx="14"/>
    <rect x="315" y="515" width="105" height="42" rx="14"/><rect x="455" y="515" width="105" height="42" rx="14"/>
  </g>
  <g fill="none" stroke="#a66d4c" stroke-linecap="round" stroke-width="12" opacity=".48">
    <path d="M1010 340h245"/><path d="M1010 405h185"/><path d="M1010 470h220"/>
    <path d="M1085 552l58 38 92-126"/>
  </g>
  <path d="M735 420h130" stroke="#8da79a" stroke-width="16" stroke-linecap="round" opacity=".55"/>
  <path d="M845 380l55 40-55 40" fill="none" stroke="#8da79a" stroke-width="16" stroke-linecap="round" stroke-linejoin="round" opacity=".55"/>
</svg>
