<svg xmlns="http://www.w3.org/2000/svg" viewBox="0 0 1600 900" role="img" aria-labelledby="title desc">
  <title id="title">Literacy before specialization</title>
  <desc id="desc">A clear map on a desk with one area gently highlighted.</desc>
  <defs><linearGradient id="bg" x1="0" x2="1" y1="0" y2="1"><stop offset="0" stop-color="#fffdf8"/><stop offset="1" stop-color="#eef5f4"/></linearGradient><filter id="soft"><feDropShadow dx="0" dy="12" stdDeviation="18" flood-color="#725d4a" flood-opacity=".14"/></filter></defs>
  <rect width="1600" height="900" fill="url(#bg)"/>
  <rect x="150" y="635" width="1300" height="88" rx="44" fill="#d8b88d" opacity=".5"/>
  <g filter="url(#soft)">
    <path d="M320 245l320 70 320-70 320 70v320l-320-70-320 70-320-70z" fill="#fffdf8"/>
  </g>
  <g fill="none" stroke="#8da79a" stroke-linecap="round" stroke-width="12" opacity=".5">
    <path d="M640 315v320M960 245v320"/>
    <path d="M395 385c85 35 130-50 210-5"/>
    <path d="M720 440c95-65 155 28 220-38"/>
    <path d="M1035 360c70 30 110-20 170 8"/>
  </g>
  <circle cx="1068" cy="455" r="82" fill="#f4d8b2" opacity=".75"/>
  <path d="M1015 455h106M1068 402v106" stroke="#a66d4c" stroke-width="12" stroke-linecap="round" opacity=".5"/>
</svg>
