<svg xmlns="http://www.w3.org/2000/svg" viewBox="0 0 1600 900" role="img" aria-labelledby="title desc">
  <title id="title">Human value migrates</title>
  <desc id="desc">A warm path of cards moving from easy tasks toward a new difficult point.</desc>
  <defs><linearGradient id="bg" x1="0" x2="1" y1="0" y2="1"><stop offset="0" stop-color="#fffdf8"/><stop offset="1" stop-color="#eef5f4"/></linearGradient><filter id="soft"><feDropShadow dx="0" dy="12" stdDeviation="18" flood-color="#725d4a" flood-opacity=".14"/></filter></defs>
  <rect width="1600" height="900" fill="url(#bg)"/>
  <circle cx="1260" cy="170" r="145" fill="#f6d9a9" opacity=".55"/>
  <rect x="145" y="640" width="1310" height="78" rx="39" fill="#d8b88d" opacity=".5"/>
  <path d="M275 560c190-170 360-110 500-235 160-142 335-98 530-185" fill="none" stroke="#8da79a" stroke-width="18" stroke-linecap="round" opacity=".5"/>
  <g filter="url(#soft)">
    <rect x="250" y="500" width="155" height="92" rx="22" fill="#fffdf8"/>
    <rect x="505" y="405" width="155" height="92" rx="22" fill="#e4eee9"/>
    <rect x="765" y="295" width="155" height="92" rx="22" fill="#fff4df"/>
    <rect x="1050" y="210" width="220" height="135" rx="28" fill="#fffdf8"/>
  </g>
  <g fill="none" stroke="#a66d4c" stroke-linecap="round" stroke-width="11" opacity=".5">
    <path d="M286 546h82"/><path d="M540 451h82"/><path d="M800 341h82"/>
    <path d="M1095 270h130"/><path d="M1095 305h90"/>
  </g>
  <circle cx="1280" cy="210" r="16" fill="#a66d4c" opacity=".55"/>
</svg>
